<svg id="kity_svg_6" xmlns="http://www.w3.org/2000/svg" xmlns:xlink="http://www.w3.org/1999/xlink" version="1.1" width="2548" height="2194" style="background: rgb(251, 251, 251); visibility: visible;" viewBox="0 0 2548 2194"><defs id="kity_defs_7"><linearGradient id="kity_linearGradient_17" x1="0" y1="0" x2="0" y2="1"><stop id="kity_stop_18" offset="0" stop-color="rgb(255, 255, 255)"></stop><stop id="kity_stop_19" offset="1" stop-color="rgb(204, 204, 204)"></stop></linearGradient><marker id="kity_marker_2" orient="auto" refX="6" refY="0" viewBox="-7 -7 14 14" markerWidth="7" markerHeight="7" markerUnits="userSpaceOnUse"><path id="kity_path_3" fill="rgb(115, 161, 191)" stroke="none" d="M6,0A6,6,0,1,1,-6,0A6,6,0,1,1,6,0"></path></marker></defs><g id="kity_g_8"><g id="minder1" text-rendering="geometricPrecision"><g id="minder_connect_group1"><path id="kity_path_31" fill="none" stroke="rgb(115, 161, 191)" stroke-width="1" d="M64.5,1475.5A181,1,0,0,1,245.5,1474.5"></path><path id="kity_path_33" fill="none" stroke="rgb(115, 161, 191)" stroke-width="1" d="M322.5,1474.5C361,1474.5,361,831.5,399.5,831.5L760.5,831.5"></path><path id="kity_path_35" fill="none" stroke="rgb(115, 161, 191)" stroke-width="1" d="M760.5,831.5C775.5,831.5,775.5,45.5,790.5,45.5L869.5,45.5"></path><path id="kity_path_37" fill="none" stroke="rgb(115, 161, 191)" stroke-width="1" d="M760.5,831.5C775.5,831.5,775.5,97.5,790.5,97.5L891.5,97.5"></path><path id="kity_path_39" fill="none" stroke="rgb(115, 161, 191)" stroke-width="1" d="M760.5,831.5C775.5,831.5,775.5,279.5,790.5,279.5L1096.5,279.5"></path><path id="kity_path_41" fill="none" stroke="rgb(115, 161, 191)" stroke-width="1" d="M1096.5,279.5C1111.5,279.5,1111.5,149.5,1126.5,149.5L1342.5,149.5"></path><path id="kity_path_43" fill="none" stroke="rgb(115, 161, 191)" stroke-width="1" d="M1096.5,279.5C1111.5,279.5,1111.5,409.5,1126.5,409.5L1505.5,409.5"></path><path id="kity_path_45" fill="none" stroke="rgb(115, 161, 191)" stroke-width="1" d="M1505.5,409.5C1520.5,409.5,1520.5,253.5,1535.5,253.5L2011.5,253.5"></path><path id="kity_path_47" fill="none" stroke="rgb(115, 161, 191)" stroke-width="1" d="M2011.5,253.5C2026.5,253.5,2026.5,201.5,2041.5,201.5L2119.5,201.5"></path><path id="kity_path_49" fill="none" stroke="rgb(115, 161, 191)" stroke-width="1" d="M2119.5,201.5C2134.5,201.5,2134.5,201.5,2149.5,201.5L2432.5,201.5"></path><path id="kity_path_51" fill="none" stroke="rgb(115, 161, 191)" stroke-width="1" d="M2011.5,253.5C2026.5,253.5,2026.5,253.5,2041.5,253.5L2131.5,253.5"></path><path id="kity_path_53" fill="none" stroke="rgb(115, 161, 191)" stroke-width="1" d="M2131.5,253.5C2146.5,253.5,2146.5,253.5,2161.5,253.5L2528.5,253.5"></path><path id="kity_path_55" fill="none" stroke="rgb(115, 161, 191)" stroke-width="1" d="M2011.5,253.5C2026.5,253.5,2026.5,305.5,2041.5,305.5L2098.5,305.5"></path><path id="kity_path_57" fill="none" stroke="rgb(115, 161, 191)" stroke-width="1" d="M2098.5,305.5C2113.5,305.5,2113.5,305.5,2128.5,305.5L2458.5,305.5"></path><path id="kity_path_59" fill="none" stroke="rgb(115, 161, 191)" stroke-width="1" d="M1505.5,409.5C1520.5,409.5,1520.5,409.5,1535.5,409.5L1928.5,409.5"></path><path id="kity_path_61" fill="none" stroke="rgb(115, 161, 191)" stroke-width="1" d="M1928.5,409.5C1943.5,409.5,1943.5,409.5,1958.5,409.5L2017.5,409.5"></path><path id="kity_path_63" fill="none" stroke="rgb(115, 161, 191)" stroke-width="1" d="M2017.5,409.5C2032.5,409.5,2032.5,357.5,2047.5,357.5L2104.5,357.5"></path><path id="kity_path_65" fill="none" stroke="rgb(115, 161, 191)" stroke-width="1" d="M2104.5,357.5C2119.5,357.5,2119.5,357.5,2134.5,357.5L2404.5,357.5"></path><path id="kity_path_67" fill="none" stroke="rgb(115, 161, 191)" stroke-width="1" d="M2017.5,409.5C2032.5,409.5,2032.5,409.5,2047.5,409.5L2105.5,409.5"></path><path id="kity_path_69" fill="none" stroke="rgb(115, 161, 191)" stroke-width="1" d="M2105.5,409.5C2120.5,409.5,2120.5,409.5,2135.5,409.5L2394.5,409.5"></path><path id="kity_path_71" fill="none" stroke="rgb(115, 161, 191)" stroke-width="1" d="M2017.5,409.5C2032.5,409.5,2032.5,461.5,2047.5,461.5L2102.5,461.5"></path><path id="kity_path_73" fill="none" stroke="rgb(115, 161, 191)" stroke-width="1" d="M2102.5,461.5C2117.5,461.5,2117.5,461.5,2132.5,461.5L2414.5,461.5"></path><path id="kity_path_75" fill="none" stroke="rgb(115, 161, 191)" stroke-width="1" d="M1505.5,409.5C1520.5,409.5,1520.5,565.5,1535.5,565.5L1937.5,565.5"></path><path id="kity_path_77" fill="none" stroke="rgb(115, 161, 191)" stroke-width="1" d="M1937.5,565.5C1952.5,565.5,1952.5,513.5,1967.5,513.5L2020.5,513.5"></path><path id="kity_path_79" fill="none" stroke="rgb(115, 161, 191)" stroke-width="1" d="M2020.5,513.5C2035.5,513.5,2035.5,513.5,2050.5,513.5L2397.5,513.5"></path><path id="kity_path_81" fill="none" stroke="rgb(115, 161, 191)" stroke-width="1" d="M1937.5,565.5C1952.5,565.5,1952.5,565.5,1967.5,565.5L2058.5,565.5"></path><path id="kity_path_83" fill="none" stroke="rgb(115, 161, 191)" stroke-width="1" d="M2058.5,565.5C2073.5,565.5,2073.5,565.5,2088.5,565.5L2346.5,565.5"></path><path id="kity_path_85" fill="none" stroke="rgb(115, 161, 191)" stroke-width="1" d="M1937.5,565.5C1952.5,565.5,1952.5,617.5,1967.5,617.5L2154.5,617.5"></path><path id="kity_path_87" fill="none" stroke="rgb(115, 161, 191)" stroke-width="1" d="M2154.5,617.5C2169.5,617.5,2169.5,617.5,2184.5,617.5L2487.5,617.5"></path><path id="kity_path_89" fill="none" stroke="rgb(115, 161, 191)" stroke-width="1" d="M760.5,831.5C775.5,831.5,775.5,1020.5,790.5,1020.5L1171.5,1020.5"></path><path id="kity_path_91" fill="none" stroke="rgb(115, 161, 191)" stroke-width="1" d="M1171.5,1020.5C1186.5,1020.5,1186.5,695.5,1201.5,695.5L1630.5,695.5"></path><path id="kity_path_93" fill="none" stroke="rgb(115, 161, 191)" stroke-width="1" d="M1630.5,695.5C1645.5,695.5,1645.5,669.5,1660.5,669.5L1750.5,669.5"></path><path id="kity_path_95" fill="none" stroke="rgb(115, 161, 191)" stroke-width="1" d="M1630.5,695.5C1645.5,695.5,1645.5,721.5,1660.5,721.5L1795.5,721.5"></path><path id="kity_path_97" fill="none" stroke="rgb(115, 161, 191)" stroke-width="1" d="M1171.5,1020.5C1186.5,1020.5,1186.5,825.5,1201.5,825.5L1578.5,825.5"></path><path id="kity_path_99" fill="none" stroke="rgb(115, 161, 191)" stroke-width="1" d="M1578.5,825.5C1593.5,825.5,1593.5,773.5,1608.5,773.5L2179.5,773.5"></path><path id="kity_path_101" fill="none" stroke="rgb(115, 161, 191)" stroke-width="1" d="M1578.5,825.5C1593.5,825.5,1593.5,825.5,1608.5,825.5L1699.5,825.5"></path><path id="kity_path_103" fill="none" stroke="rgb(115, 161, 191)" stroke-width="1" d="M1578.5,825.5C1593.5,825.5,1593.5,877.5,1608.5,877.5L2092.5,877.5"></path><path id="kity_path_105" fill="none" stroke="rgb(115, 161, 191)" stroke-width="1" d="M1171.5,1020.5C1186.5,1020.5,1186.5,1007.5,1201.5,1007.5L1631.5,1007.5"></path><path id="kity_path_107" fill="none" stroke="rgb(115, 161, 191)" stroke-width="1" d="M1631.5,1007.5C1646.5,1007.5,1646.5,929.5,1661.5,929.5L1800.5,929.5"></path><path id="kity_path_109" fill="none" stroke="rgb(115, 161, 191)" stroke-width="1" d="M1631.5,1007.5C1646.5,1007.5,1646.5,981.5,1661.5,981.5L1836.5,981.5"></path><path id="kity_path_111" fill="none" stroke="rgb(115, 161, 191)" stroke-width="1" d="M1631.5,1007.5C1646.5,1007.5,1646.5,1033.5,1661.5,1033.5L1823.5,1033.5"></path><path id="kity_path_113" fill="none" stroke="rgb(115, 161, 191)" stroke-width="1" d="M1631.5,1007.5C1646.5,1007.5,1646.5,1085.5,1661.5,1085.5L1915.5,1085.5"></path><path id="kity_path_115" fill="none" stroke="rgb(115, 161, 191)" stroke-width="1" d="M1171.5,1020.5C1186.5,1020.5,1186.5,1189.5,1201.5,1189.5L1638.5,1189.5"></path><path id="kity_path_117" fill="none" stroke="rgb(115, 161, 191)" stroke-width="1" d="M1638.5,1189.5C1653.5,1189.5,1653.5,1137.5,1668.5,1137.5L1794.5,1137.5"></path><path id="kity_path_119" fill="none" stroke="rgb(115, 161, 191)" stroke-width="1" d="M1638.5,1189.5C1653.5,1189.5,1653.5,1189.5,1668.5,1189.5L1841.5,1189.5"></path><path id="kity_path_121" fill="none" stroke="rgb(115, 161, 191)" stroke-width="1" d="M1638.5,1189.5C1653.5,1189.5,1653.5,1241.5,1668.5,1241.5L1843.5,1241.5"></path><path id="kity_path_123" fill="none" stroke="rgb(115, 161, 191)" stroke-width="1" d="M1171.5,1020.5C1186.5,1020.5,1186.5,1293.5,1201.5,1293.5L1544.5,1293.5"></path><path id="kity_path_125" fill="none" stroke="rgb(115, 161, 191)" stroke-width="1" d="M1171.5,1020.5C1186.5,1020.5,1186.5,1345.5,1201.5,1345.5L1419.5,1345.5"></path><path id="kity_path_127" fill="none" stroke="rgb(115, 161, 191)" stroke-width="1" d="M760.5,831.5C775.5,831.5,775.5,1618.5,790.5,1618.5L1010.5,1618.5"></path><path id="kity_path_129" fill="none" stroke="rgb(115, 161, 191)" stroke-width="1" d="M1010.5,1618.5C1025.5,1618.5,1025.5,1475.5,1040.5,1475.5L1411.5,1475.5"></path><path id="kity_path_131" fill="none" stroke="rgb(115, 161, 191)" stroke-width="1" d="M1411.5,1475.5C1426.5,1475.5,1426.5,1397.5,1441.5,1397.5L1568.5,1397.5"></path><path id="kity_path_133" fill="none" stroke="rgb(115, 161, 191)" stroke-width="1" d="M1411.5,1475.5C1426.5,1475.5,1426.5,1449.5,1441.5,1449.5L1604.5,1449.5"></path><path id="kity_path_135" fill="none" stroke="rgb(115, 161, 191)" stroke-width="1" d="M1411.5,1475.5C1426.5,1475.5,1426.5,1501.5,1441.5,1501.5L1556.5,1501.5"></path><path id="kity_path_137" fill="none" stroke="rgb(115, 161, 191)" stroke-width="1" d="M1411.5,1475.5C1426.5,1475.5,1426.5,1553.5,1441.5,1553.5L1616.5,1553.5"></path><path id="kity_path_139" fill="none" stroke="rgb(115, 161, 191)" stroke-width="1" d="M1010.5,1618.5C1025.5,1618.5,1025.5,1657.5,1040.5,1657.5L1440.5,1657.5"></path><path id="kity_path_141" fill="none" stroke="rgb(115, 161, 191)" stroke-width="1" d="M1440.5,1657.5C1455.5,1657.5,1455.5,1605.5,1470.5,1605.5L1548.5,1605.5"></path><path id="kity_path_143" fill="none" stroke="rgb(115, 161, 191)" stroke-width="1" d="M1548.5,1605.5C1563.5,1605.5,1563.5,1605.5,1578.5,1605.5L1645.5,1605.5"></path><path id="kity_path_145" fill="none" stroke="rgb(115, 161, 191)" stroke-width="1" d="M1440.5,1657.5C1455.5,1657.5,1455.5,1657.5,1470.5,1657.5L1560.5,1657.5"></path><path id="kity_path_147" fill="none" stroke="rgb(115, 161, 191)" stroke-width="1" d="M1560.5,1657.5C1575.5,1657.5,1575.5,1657.5,1590.5,1657.5L1669.5,1657.5"></path><path id="kity_path_149" fill="none" stroke="rgb(115, 161, 191)" stroke-width="1" d="M1440.5,1657.5C1455.5,1657.5,1455.5,1709.5,1470.5,1709.5L1549.5,1709.5"></path><path id="kity_path_151" fill="none" stroke="rgb(115, 161, 191)" stroke-width="1" d="M1549.5,1709.5C1564.5,1709.5,1564.5,1709.5,1579.5,1709.5L1634.5,1709.5"></path><path id="kity_path_153" fill="none" stroke="rgb(115, 161, 191)" stroke-width="1" d="M1010.5,1618.5C1025.5,1618.5,1025.5,1761.5,1040.5,1761.5L1292.5,1761.5"></path><path id="kity_path_155" fill="none" stroke="rgb(115, 161, 191)" stroke-width="1" d="M322.5,1474.5C337.5,1474.5,337.5,1862.5,352.5,1862.5L443.5,1862.5"></path><path id="kity_path_157" fill="none" stroke="rgb(115, 161, 191)" stroke-width="1" d="M443.5,1862.5C458.5,1862.5,458.5,1810.5,473.5,1810.5L572.5,1810.5"></path><path id="kity_path_159" fill="none" stroke="rgb(115, 161, 191)" stroke-width="1" d="M443.5,1862.5C458.5,1862.5,458.5,1862.5,473.5,1862.5L907.5,1862.5"></path><path id="kity_path_161" fill="none" stroke="rgb(115, 161, 191)" stroke-width="1" d="M443.5,1862.5C458.5,1862.5,458.5,1914.5,473.5,1914.5L847.5,1914.5"></path><path id="kity_path_163" fill="none" stroke="rgb(115, 161, 191)" stroke-width="1" d="M322.5,1474.5C337.5,1474.5,337.5,2018.5,352.5,2018.5L443.5,2018.5"></path><path id="kity_path_165" fill="none" stroke="rgb(115, 161, 191)" stroke-width="1" d="M443.5,2018.5C458.5,2018.5,458.5,1966.5,473.5,1966.5L552.5,1966.5"></path><path id="kity_path_167" fill="none" stroke="rgb(115, 161, 191)" stroke-width="1" d="M443.5,2018.5C458.5,2018.5,458.5,2018.5,473.5,2018.5L600.5,2018.5"></path><path id="kity_path_169" fill="none" stroke="rgb(115, 161, 191)" stroke-width="1" d="M443.5,2018.5C458.5,2018.5,458.5,2070.5,473.5,2070.5L540.5,2070.5"></path><path id="kity_path_171" fill="none" stroke="rgb(115, 161, 191)" stroke-width="1" d="M322.5,1474.5C337.5,1474.5,337.5,2148.5,352.5,2148.5L436.5,2148.5"></path><path id="kity_path_173" fill="none" stroke="rgb(115, 161, 191)" stroke-width="1" d="M436.5,2148.5C451.5,2148.5,451.5,2148.5,466.5,2148.5L605.5,2148.5"></path><path id="kity_path_175" fill="none" stroke="rgb(115, 161, 191)" stroke-width="1" d="M605.5,2148.5C620.5,2148.5,620.5,2122.5,635.5,2122.5L713.5,2122.5"></path><path id="kity_path_177" fill="none" stroke="rgb(115, 161, 191)" stroke-width="1" d="M605.5,2148.5C620.5,2148.5,620.5,2174.5,635.5,2174.5L878.5,2174.5"></path></g><g id="minder_node1"><path id="node_outline1" fill="rgb(115, 161, 191)" stroke="rgb(115, 161, 191)" d="M25.5,1455.5h78a5,5,0,0,1,5,5v30a5,5,0,0,1,-5,5h-78a5,5,0,0,1,-5,-5v-30a5,5,0,0,1,5,-5z" stroke-width="3"></path><g id="node_text1" fill="white"><text id="kity_text_22" text-rendering="inherit" font-size="16" dy=".8em" y="1465.0999999046326" x="44.5">AIDD</text></g></g><g id="kity_g_12"><path id="kity_path_13" fill="none" stroke="none" d="M44.5,1475.5h0v0h0z"></path></g><g id="kity_g_14"><path id="kity_path_15" fill="none" stroke="none" d="M44.5,1475.5h0v0h0z"></path><path id="kity_path_16" fill="none" stroke="none"></path></g><g id="minder_node2"><g id="node_expander74" style="cursor: pointer;"><path id="kity_path_620" fill="white" stroke="gray" d="M246.5000066459179,1474.4999999701977A6,6,0,1,1,234.5000066459179,1474.4999999701977A6,6,0,1,1,246.5000066459179,1474.4999999701977"></path><path id="kity_path_621" fill="none" stroke="gray" d="M236.0000066459179,1474.4999999701977L245.0000066459179,1474.4999999701977"></path></g><path id="node_outline75" fill="rgb(238, 243, 246)" stroke="rgb(115, 161, 191)" d="M250.5000066459179,1461.4999999701977h69a3,3,0,0,1,3,3v20a3,3,0,0,1,-3,3h-69a3,3,0,0,1,-3,-3v-20a3,3,0,0,1,3,-3z" stroke-width="1"></path><g id="node_text75" fill="black"><text id="kity_text_325" text-rendering="inherit" font-size="14" dy=".8em" y="1465.400000065565" x="267.5000066459179">AIDR</text></g></g><g id="minder_node3"><g id="node_expander61" style="cursor: pointer;"><path id="kity_path_581" fill="white" stroke="gray" d="M409.5000111758709,817.4999803900719A6,6,0,1,1,397.5000111758709,817.4999803900719A6,6,0,1,1,409.5000111758709,817.4999803900719"></path><path id="kity_path_582" fill="none" stroke="gray" d="M399.0000111758709,817.4999803900719L408.0000111758709,817.4999803900719"></path></g><path id="node_outline62" fill="none" stroke="none" d="M414.5000111758709,806.4999803900719h341a5,5,0,0,1,5,5v12a5,5,0,0,1,-5,5h-341a5,5,0,0,1,-5,-5v-12a5,5,0,0,1,5,-5z" stroke-width="3"></path><g id="node_text62" fill="black"><text id="kity_text_299" text-rendering="inherit" font-size="12" dy=".8em" y="809.6999804377556" x="419.5000111758709">Applications of Artificial Intelligence in Drug Repurposing</text></g></g><g id="minder_node4"><g id="node_expander1" display="none" style="cursor: pointer;"><path id="kity_path_401" fill="white" stroke="gray" d="M800.500022828579,31.499956965446472A6,6,0,1,1,788.500022828579,31.499956965446472A6,6,0,1,1,800.500022828579,31.499956965446472"></path><path id="kity_path_402" fill="none" stroke="gray"></path></g><path id="node_outline2" fill="none" stroke="none" d="M805.500022828579,20.499956965446472h59a5,5,0,0,1,5,5v12a5,5,0,0,1,-5,5h-59a5,5,0,0,1,-5,-5v-12a5,5,0,0,1,5,-5z"></path><g id="node_text2" fill="black"><text id="kity_text_179" text-rendering="inherit" font-size="12" dy=".8em" y="23.699957013130188" x="810.500022828579">Abstract</text></g></g><g id="minder_node5"><g id="node_expander2" display="none" style="cursor: pointer;"><path id="kity_path_404" fill="white" stroke="gray" d="M800.500022828579,83.49995851516746A6,6,0,1,1,788.500022828579,83.49995851516746A6,6,0,1,1,800.500022828579,83.49995851516746"></path><path id="kity_path_405" fill="none" stroke="gray"></path></g><path id="node_outline3" fill="none" stroke="none" d="M805.500022828579,72.49995851516746h81a5,5,0,0,1,5,5v12a5,5,0,0,1,-5,5h-81a5,5,0,0,1,-5,-5v-12a5,5,0,0,1,5,-5z"></path><g id="node_text3" fill="black"><text id="kity_text_181" text-rendering="inherit" font-size="12" dy=".8em" y="75.69995856285118" x="810.500022828579">introduction</text></g></g><g id="minder_node6"><g id="node_expander27" style="cursor: pointer;"><path id="kity_path_479" fill="white" stroke="gray" d="M800.500022828579,265.4999639391899A6,6,0,1,1,788.500022828579,265.4999639391899A6,6,0,1,1,800.500022828579,265.4999639391899"></path><path id="kity_path_480" fill="none" stroke="gray" d="M790.000022828579,265.4999639391899L799.000022828579,265.4999639391899"></path></g><path id="node_outline28" fill="none" stroke="none" d="M805.500022828579,254.4999639391899h286a5,5,0,0,1,5,5v12a5,5,0,0,1,-5,5h-286a5,5,0,0,1,-5,-5v-12a5,5,0,0,1,5,-5z" stroke-width="3"></path><g id="node_text28" fill="black"><text id="kity_text_231" text-rendering="inherit" font-size="12" dy=".8em" y="257.6999639868736" x="810.500022828579">Toolbox of AI Approaches for Drug Repurposing</text></g></g><g id="minder_node7"><g id="node_expander3" style="cursor: pointer;" display="none"><path id="kity_path_407" fill="white" stroke="gray" d="M1136.5000328421593,135.499960064888A6,6,0,1,1,1124.5000328421593,135.499960064888A6,6,0,1,1,1136.5000328421593,135.499960064888"></path><path id="kity_path_408" fill="none" stroke="gray"></path></g><path id="node_outline4" fill="none" stroke="none" d="M1141.5000328421593,124.499960064888h196a5,5,0,0,1,5,5v12a5,5,0,0,1,-5,5h-196a5,5,0,0,1,-5,-5v-12a5,5,0,0,1,5,-5z"></path><g id="node_text4" fill="black"><text id="kity_text_183" text-rendering="inherit" font-size="12" dy=".8em" y="127.69996011257172" x="1146.5000328421593">Massive Medical Data Resources</text></g></g><g id="minder_node8"><g id="node_expander26" style="cursor: pointer;"><path id="kity_path_476" fill="white" stroke="gray" d="M1136.5000328421593,395.4999678134918A6,6,0,1,1,1124.5000328421593,395.4999678134918A6,6,0,1,1,1136.5000328421593,395.4999678134918"></path><path id="kity_path_477" fill="none" stroke="gray" d="M1126.0000328421593,395.4999678134918L1135.0000328421593,395.4999678134918"></path></g><path id="node_outline27" fill="none" stroke="none" d="M1141.5000328421593,384.4999678134918h359a5,5,0,0,1,5,5v12a5,5,0,0,1,-5,5h-359a5,5,0,0,1,-5,-5v-12a5,5,0,0,1,5,-5z"></path><g id="node_text27" fill="black"><text id="kity_text_229" text-rendering="inherit" font-size="12" dy=".8em" y="387.69996786117554" x="1146.5000328421593">The Types of AI Models and Algorithms in Drug Repurposing</text></g></g><g id="minder_node9"><g id="node_expander10" style="cursor: pointer;"><path id="kity_path_428" fill="white" stroke="gray" d="M1545.5000450313091,239.49996316432953A6,6,0,1,1,1533.5000450313091,239.49996316432953A6,6,0,1,1,1545.5000450313091,239.49996316432953"></path><path id="kity_path_429" fill="none" stroke="gray" d="M1535.0000450313091,239.49996316432953L1544.0000450313091,239.49996316432953"></path></g><path id="node_outline11" fill="none" stroke="none" d="M1550.5000450313091,228.49996316432953h456a5,5,0,0,1,5,5v12a5,5,0,0,1,-5,5h-456a5,5,0,0,1,-5,-5v-12a5,5,0,0,1,5,-5z" stroke-width="3"></path><g id="node_text11" fill="black"><text id="kity_text_197" text-rendering="inherit" font-size="12" dy=".8em" y="231.69996321201324" x="1555.5000450313091">Algorithms for Linking Drug Compounds（药物化合物） with Potential Targets</text></g></g><g id="minder_node10"><g id="node_expander5" style="cursor: pointer;"><path id="kity_path_413" fill="white" stroke="gray" d="M2051.5000601112843,187.49996161460876A6,6,0,1,1,2039.5000601112843,187.49996161460876A6,6,0,1,1,2051.5000601112843,187.49996161460876"></path><path id="kity_path_414" fill="none" stroke="gray" d="M2041.0000601112843,187.49996161460876L2050.0000601112843,187.49996161460876"></path></g><path id="node_outline6" fill="none" stroke="none" d="M2056.5000601112843,176.49996161460876h58a5,5,0,0,1,5,5v12a5,5,0,0,1,-5,5h-58a5,5,0,0,1,-5,-5v-12a5,5,0,0,1,5,-5z"></path><g id="node_text6" fill="black"><text id="kity_text_187" text-rendering="inherit" font-size="12" dy=".8em" y="179.69996166229248" x="2061.5000601112843">监督学习</text></g></g><g id="minder_node11"><g id="node_expander4" style="cursor: pointer;" display="none"><path id="kity_path_410" fill="white" stroke="gray" d="M2159.500063329935,187.49996161460876A6,6,0,1,1,2147.500063329935,187.49996161460876A6,6,0,1,1,2159.500063329935,187.49996161460876"></path><path id="kity_path_411" fill="none" stroke="gray"></path></g><path id="node_outline5" fill="none" stroke="none" d="M2164.500063329935,176.49996161460876h263a5,5,0,0,1,5,5v12a5,5,0,0,1,-5,5h-263a5,5,0,0,1,-5,-5v-12a5,5,0,0,1,5,-5z"></path><g id="node_text5" fill="black"><text id="kity_text_185" text-rendering="inherit" font-size="12" dy=".8em" y="179.69996166229248" x="2169.500063329935">构建药物靶点关联模式，预测潜在的新靶点关联</text></g></g><g id="minder_node12"><g id="node_expander7" style="cursor: pointer;"><path id="kity_path_419" fill="white" stroke="gray" d="M2051.5000601112843,239.49996316432953A6,6,0,1,1,2039.5000601112843,239.49996316432953A6,6,0,1,1,2051.5000601112843,239.49996316432953"></path><path id="kity_path_420" fill="none" stroke="gray" d="M2041.0000601112843,239.49996316432953L2050.0000601112843,239.49996316432953"></path></g><path id="node_outline8" fill="none" stroke="none" d="M2056.5000601112843,228.49996316432953h70a5,5,0,0,1,5,5v12a5,5,0,0,1,-5,5h-70a5,5,0,0,1,-5,-5v-12a5,5,0,0,1,5,-5z"></path><g id="node_text8" fill="black"><text id="kity_text_191" text-rendering="inherit" font-size="12" dy=".8em" y="231.69996321201324" x="2061.5000601112843">无监督学习</text></g></g><g id="minder_node13"><g id="node_expander6" style="cursor: pointer;" display="none"><path id="kity_path_416" fill="white" stroke="gray" d="M2171.500063687563,239.49996316432953A6,6,0,1,1,2159.500063687563,239.49996316432953A6,6,0,1,1,2171.500063687563,239.49996316432953"></path><path id="kity_path_417" fill="none" stroke="gray"></path></g><path id="node_outline7" fill="none" stroke="none" d="M2176.500063687563,228.49996316432953h347a5,5,0,0,1,5,5v12a5,5,0,0,1,-5,5h-347a5,5,0,0,1,-5,-5v-12a5,5,0,0,1,5,-5z"></path><g id="node_text7" fill="black"><text id="kity_text_189" text-rendering="inherit" font-size="12" dy=".8em" y="231.69996321201324" x="2181.500063687563">识别药物代表性属性和隐藏模式，根据药物相似性推断潜在靶标</text></g></g><g id="minder_node14"><g id="node_expander9" style="cursor: pointer;"><path id="kity_path_425" fill="white" stroke="gray" d="M2051.5000601112843,291.4999647140503A6,6,0,1,1,2039.5000601112843,291.4999647140503A6,6,0,1,1,2051.5000601112843,291.4999647140503"></path><path id="kity_path_426" fill="none" stroke="gray" d="M2041.0000601112843,291.4999647140503L2050.0000601112843,291.4999647140503"></path></g><path id="node_outline10" fill="none" stroke="none" d="M2056.5000601112843,280.4999647140503h37a5,5,0,0,1,5,5v12a5,5,0,0,1,-5,5h-37a5,5,0,0,1,-5,-5v-12a5,5,0,0,1,5,-5z"></path><g id="node_text10" fill="black"><text id="kity_text_195" text-rendering="inherit" font-size="12" dy=".8em" y="283.699964761734" x="2061.5000601112843">GAN</text></g></g><g id="minder_node15"><g id="node_expander8" style="cursor: pointer;" display="none"><path id="kity_path_422" fill="white" stroke="gray" d="M2138.5000627040863,291.4999647140503A6,6,0,1,1,2126.5000627040863,291.4999647140503A6,6,0,1,1,2138.5000627040863,291.4999647140503"></path><path id="kity_path_423" fill="none" stroke="gray"></path></g><path id="node_outline9" fill="none" stroke="none" d="M2143.5000627040863,280.4999647140503h310a5,5,0,0,1,5,5v12a5,5,0,0,1,-5,5h-310a5,5,0,0,1,-5,-5v-12a5,5,0,0,1,5,-5z"></path><g id="node_text9" fill="black"><text id="kity_text_193" text-rendering="inherit" font-size="12" dy=".8em" y="283.699964761734" x="2148.5000627040863">生成相似分子，预测药物与生物靶标之间的潜在相互作用</text></g></g><g id="minder_node16"><g id="node_expander18" style="cursor: pointer;"><path id="kity_path_452" fill="white" stroke="gray" d="M1545.5000450313091,395.4999678134918A6,6,0,1,1,1533.5000450313091,395.4999678134918A6,6,0,1,1,1545.5000450313091,395.4999678134918"></path><path id="kity_path_453" fill="none" stroke="gray" d="M1535.0000450313091,395.4999678134918L1544.0000450313091,395.4999678134918"></path></g><path id="node_outline19" fill="none" stroke="none" d="M1550.5000450313091,384.4999678134918h373a5,5,0,0,1,5,5v12a5,5,0,0,1,-5,5h-373a5,5,0,0,1,-5,-5v-12a5,5,0,0,1,5,-5z" stroke-width="3"></path><g id="node_text19" fill="black"><text id="kity_text_213" text-rendering="inherit" font-size="12" dy=".8em" y="387.69996786117554" x="1555.5000450313091">Algorithms for Revealing Indications Linked Known Mechanism</text></g></g><g id="minder_node17"><g id="node_expander17" style="cursor: pointer;"><path id="kity_path_449" fill="white" stroke="gray" d="M1968.5000576376915,395.4999678134918A6,6,0,1,1,1956.5000576376915,395.4999678134918A6,6,0,1,1,1968.5000576376915,395.4999678134918"></path><path id="kity_path_450" fill="none" stroke="gray" d="M1958.0000576376915,395.4999678134918L1967.0000576376915,395.4999678134918"></path></g><path id="node_outline18" fill="none" stroke="none" d="M1973.5000576376915,384.4999678134918h39a5,5,0,0,1,5,5v12a5,5,0,0,1,-5,5h-39a5,5,0,0,1,-5,-5v-12a5,5,0,0,1,5,-5z"></path><g id="node_text18" fill="black"><text id="kity_text_211" text-rendering="inherit" font-size="12" dy=".8em" y="387.69996786117554" x="1978.5000576376915">ANN</text></g></g><g id="minder_node18"><g id="node_expander12" style="cursor: pointer;"><path id="kity_path_434" fill="white" stroke="gray" d="M2057.500060290098,343.4999662637713A6,6,0,1,1,2045.5000602900982,343.4999662637713A6,6,0,1,1,2057.500060290098,343.4999662637713"></path><path id="kity_path_435" fill="none" stroke="gray" d="M2047.0000602900982,343.4999662637713L2056.000060290098,343.4999662637713"></path></g><path id="node_outline13" fill="none" stroke="none" d="M2062.500060290098,332.4999662637713h37a5,5,0,0,1,5,5v12a5,5,0,0,1,-5,5h-37a5,5,0,0,1,-5,-5v-12a5,5,0,0,1,5,-5z"></path><g id="node_text13" fill="black"><text id="kity_text_201" text-rendering="inherit" font-size="12" dy=".8em" y="335.699966311455" x="2067.500060290098">RNN</text></g></g><g id="minder_node19"><g id="node_expander11" style="cursor: pointer;" display="none"><path id="kity_path_431" fill="white" stroke="gray" d="M2144.5000628829002,343.4999662637713A6,6,0,1,1,2132.5000628829002,343.4999662637713A6,6,0,1,1,2144.5000628829002,343.4999662637713"></path><path id="kity_path_432" fill="none" stroke="gray"></path></g><path id="node_outline12" fill="none" stroke="none" d="M2149.5000628829002,332.4999662637713h250a5,5,0,0,1,5,5v12a5,5,0,0,1,-5,5h-250a5,5,0,0,1,-5,-5v-12a5,5,0,0,1,5,-5z"></path><g id="node_text12" fill="black"><text id="kity_text_199" text-rendering="inherit" font-size="12" dy=".8em" y="335.699966311455" x="2154.5000628829002">时序特征建模捕获药物作用过程中的关键反应</text></g></g><g id="minder_node20"><g id="node_expander14" style="cursor: pointer;"><path id="kity_path_440" fill="white" stroke="gray" d="M2057.500060290098,395.4999678134918A6,6,0,1,1,2045.5000602900982,395.4999678134918A6,6,0,1,1,2057.500060290098,395.4999678134918"></path><path id="kity_path_441" fill="none" stroke="gray" d="M2047.0000602900982,395.4999678134918L2056.000060290098,395.4999678134918"></path></g><path id="node_outline15" fill="none" stroke="none" d="M2062.500060290098,384.4999678134918h38a5,5,0,0,1,5,5v12a5,5,0,0,1,-5,5h-38a5,5,0,0,1,-5,-5v-12a5,5,0,0,1,5,-5z"></path><g id="node_text15" fill="black"><text id="kity_text_205" text-rendering="inherit" font-size="12" dy=".8em" y="387.69996786117554" x="2067.500060290098">CNN</text></g></g><g id="minder_node21"><g id="node_expander13" style="cursor: pointer;" display="none"><path id="kity_path_437" fill="white" stroke="gray" d="M2145.5000629127026,395.4999678134918A6,6,0,1,1,2133.5000629127026,395.4999678134918A6,6,0,1,1,2145.5000629127026,395.4999678134918"></path><path id="kity_path_438" fill="none" stroke="gray"></path></g><path id="node_outline14" fill="none" stroke="none" d="M2150.5000629127026,384.4999678134918h239a5,5,0,0,1,5,5v12a5,5,0,0,1,-5,5h-239a5,5,0,0,1,-5,-5v-12a5,5,0,0,1,5,-5z"></path><g id="node_text14" fill="black"><text id="kity_text_203" text-rendering="inherit" font-size="12" dy=".8em" y="387.69996786117554" x="2155.5000629127026">空间建模特征识别药物与靶点结构的相容性</text></g></g><g id="minder_node22"><g id="node_expander16" style="cursor: pointer;"><path id="kity_path_446" fill="white" stroke="gray" d="M2057.500060290098,447.4999693632126A6,6,0,1,1,2045.5000602900982,447.4999693632126A6,6,0,1,1,2057.500060290098,447.4999693632126"></path><path id="kity_path_447" fill="none" stroke="gray" d="M2047.0000602900982,447.4999693632126L2056.000060290098,447.4999693632126"></path></g><path id="node_outline17" fill="none" stroke="none" d="M2062.500060290098,436.4999693632126h35a5,5,0,0,1,5,5v12a5,5,0,0,1,-5,5h-35a5,5,0,0,1,-5,-5v-12a5,5,0,0,1,5,-5z"></path><g id="node_text17" fill="black"><text id="kity_text_209" text-rendering="inherit" font-size="12" dy=".8em" y="439.6999694108963" x="2067.500060290098">MLP</text></g></g><g id="minder_node23"><g id="node_expander15" style="cursor: pointer;" display="none"><path id="kity_path_443" fill="white" stroke="gray" d="M2142.5000628232956,447.4999693632126A6,6,0,1,1,2130.5000628232956,447.4999693632126A6,6,0,1,1,2142.5000628232956,447.4999693632126"></path><path id="kity_path_444" fill="none" stroke="gray"></path></g><path id="node_outline16" fill="none" stroke="none" d="M2147.5000628232956,436.4999693632126h262a5,5,0,0,1,5,5v12a5,5,0,0,1,-5,5h-262a5,5,0,0,1,-5,-5v-12a5,5,0,0,1,5,-5z"></path><g id="node_text16" fill="black"><text id="kity_text_207" text-rendering="inherit" font-size="12" dy=".8em" y="439.6999694108963" x="2152.5000628232956">建立非线性输入输出关系预测药物靶点相互作用</text></g></g><g id="minder_node24"><g id="node_expander25" style="cursor: pointer;"><path id="kity_path_473" fill="white" stroke="gray" d="M1545.5000450313091,551.4999724626542A6,6,0,1,1,1533.5000450313091,551.4999724626542A6,6,0,1,1,1545.5000450313091,551.4999724626542"></path><path id="kity_path_474" fill="none" stroke="gray" d="M1535.0000450313091,551.4999724626542L1544.0000450313091,551.4999724626542"></path></g><path id="node_outline26" fill="none" stroke="none" d="M1550.5000450313091,540.4999724626542h382a5,5,0,0,1,5,5v12a5,5,0,0,1,-5,5h-382a5,5,0,0,1,-5,-5v-12a5,5,0,0,1,5,-5z" stroke-width="3"></path><g id="node_text26" fill="black"><text id="kity_text_227" text-rendering="inherit" font-size="12" dy=".8em" y="543.699972510338" x="1555.5000450313091">Algorithms for Identifying Clinical Effects in Real-World Evidence</text></g></g><g id="minder_node25"><g id="node_expander20" style="cursor: pointer;"><path id="kity_path_458" fill="white" stroke="gray" d="M1977.5000579059124,499.49997091293335A6,6,0,1,1,1965.5000579059124,499.49997091293335A6,6,0,1,1,1977.5000579059124,499.49997091293335"></path><path id="kity_path_459" fill="none" stroke="gray" d="M1967.0000579059124,499.49997091293335L1976.0000579059124,499.49997091293335"></path></g><path id="node_outline21" fill="none" stroke="none" d="M1982.5000579059124,488.49997091293335h33a5,5,0,0,1,5,5v12a5,5,0,0,1,-5,5h-33a5,5,0,0,1,-5,-5v-12a5,5,0,0,1,5,-5z"></path><g id="node_text21" fill="black"><text id="kity_text_217" text-rendering="inherit" font-size="12" dy=".8em" y="491.69997096061707" x="1987.5000579059124">NLP</text></g></g><g id="minder_node26"><g id="node_expander19" style="cursor: pointer;" display="none"><path id="kity_path_455" fill="white" stroke="gray" d="M2060.500060379505,499.49997091293335A6,6,0,1,1,2048.500060379505,499.49997091293335A6,6,0,1,1,2060.500060379505,499.49997091293335"></path><path id="kity_path_456" fill="none" stroke="gray"></path></g><path id="node_outline20" fill="none" stroke="none" d="M2065.500060379505,488.49997091293335h327a5,5,0,0,1,5,5v12a5,5,0,0,1,-5,5h-327a5,5,0,0,1,-5,-5v-12a5,5,0,0,1,5,-5z"></path><g id="node_text20" fill="black"><text id="kity_text_215" text-rendering="inherit" font-size="12" dy=".8em" y="491.69997096061707" x="2070.500060379505">挖掘非结构化文本获取结构化知识，发觉药物新用途/副作用</text></g></g><g id="minder_node27"><g id="node_expander22" style="cursor: pointer;"><path id="kity_path_464" fill="white" stroke="gray" d="M1977.5000579059124,551.4999724626542A6,6,0,1,1,1965.5000579059124,551.4999724626542A6,6,0,1,1,1977.5000579059124,551.4999724626542"></path><path id="kity_path_465" fill="none" stroke="gray" d="M1967.0000579059124,551.4999724626542L1976.0000579059124,551.4999724626542"></path></g><path id="node_outline23" fill="none" stroke="none" d="M1982.5000579059124,540.4999724626542h71a5,5,0,0,1,5,5v12a5,5,0,0,1,-5,5h-71a5,5,0,0,1,-5,-5v-12a5,5,0,0,1,5,-5z"></path><g id="node_text23" fill="black"><text id="kity_text_221" text-rendering="inherit" font-size="12" dy=".8em" y="543.699972510338" x="1987.5000579059124">启发式算法</text></g></g><g id="minder_node28"><g id="node_expander21" style="cursor: pointer;" display="none"><path id="kity_path_461" fill="white" stroke="gray" d="M2098.5000615119934,551.4999724626542A6,6,0,1,1,2086.5000615119934,551.4999724626542A6,6,0,1,1,2098.5000615119934,551.4999724626542"></path><path id="kity_path_462" fill="none" stroke="gray"></path></g><path id="node_outline22" fill="none" stroke="none" d="M2103.5000615119934,540.4999724626542h238a5,5,0,0,1,5,5v12a5,5,0,0,1,-5,5h-238a5,5,0,0,1,-5,-5v-12a5,5,0,0,1,5,-5z"></path><g id="node_text22" fill="black"><text id="kity_text_219" text-rendering="inherit" font-size="12" dy=".8em" y="543.699972510338" x="2108.5000615119934">摆脱对目标函数的依赖，适合高维优化问题</text></g></g><g id="minder_node29"><g id="node_expander24" style="cursor: pointer;"><path id="kity_path_470" fill="white" stroke="gray" d="M1977.5000579059124,603.4999740123749A6,6,0,1,1,1965.5000579059124,603.4999740123749A6,6,0,1,1,1977.5000579059124,603.4999740123749"></path><path id="kity_path_471" fill="none" stroke="gray" d="M1967.0000579059124,603.4999740123749L1976.0000579059124,603.4999740123749"></path></g><path id="node_outline25" fill="none" stroke="none" d="M1982.5000579059124,592.4999740123749h167a5,5,0,0,1,5,5v12a5,5,0,0,1,-5,5h-167a5,5,0,0,1,-5,-5v-12a5,5,0,0,1,5,-5z"></path><g id="node_text25" fill="black"><text id="kity_text_225" text-rendering="inherit" font-size="12" dy=".8em" y="595.6999740600586" x="1987.5000579059124">正则化模型（非负矩阵分解）</text></g></g><g id="minder_node30"><g id="node_expander23" style="cursor: pointer;" display="none"><path id="kity_path_467" fill="white" stroke="gray" d="M2194.5000643730164,603.4999740123749A6,6,0,1,1,2182.5000643730164,603.4999740123749A6,6,0,1,1,2194.5000643730164,603.4999740123749"></path><path id="kity_path_468" fill="none" stroke="gray"></path></g><path id="node_outline24" fill="none" stroke="none" d="M2199.5000643730164,592.4999740123749h283a5,5,0,0,1,5,5v12a5,5,0,0,1,-5,5h-283a5,5,0,0,1,-5,-5v-12a5,5,0,0,1,5,-5z"></path><g id="node_text24" fill="black"><text id="kity_text_223" text-rendering="inherit" font-size="12" dy=".8em" y="595.6999740600586" x="2204.5000643730164">降维+聚类，分解药物靶点矩阵，寻找相似潜在靶点</text></g></g><g id="minder_node31"><g id="node_expander46" style="cursor: pointer;"><path id="kity_path_536" fill="white" stroke="gray" d="M800.500022828579,1006.4999860227108A6,6,0,1,1,788.500022828579,1006.4999860227108A6,6,0,1,1,800.500022828579,1006.4999860227108"></path><path id="kity_path_537" fill="none" stroke="gray" d="M790.000022828579,1006.4999860227108L799.000022828579,1006.4999860227108"></path></g><path id="node_outline47" fill="none" stroke="none" d="M805.500022828579,995.4999860227108h361a5,5,0,0,1,5,5v12a5,5,0,0,1,-5,5h-361a5,5,0,0,1,-5,-5v-12a5,5,0,0,1,5,-5z" stroke-width="3"></path><g id="node_text47" fill="black"><text id="kity_text_269" text-rendering="inherit" font-size="12" dy=".8em" y="998.6999860703945" x="810.500022828579">Application Scenarios of AI Algorithms for Drug Repurposing</text></g></g><g id="minder_node32"><g id="node_expander30" style="cursor: pointer;"><path id="kity_path_488" fill="white" stroke="gray" d="M1211.5000350773335,681.4999763369561A6,6,0,1,1,1199.5000350773335,681.4999763369561A6,6,0,1,1,1211.5000350773335,681.4999763369561"></path><path id="kity_path_489" fill="none" stroke="gray" d="M1201.0000350773335,681.4999763369561L1210.0000350773335,681.4999763369561"></path></g><path id="node_outline31" fill="none" stroke="none" d="M1216.5000350773335,670.4999763369561h409a5,5,0,0,1,5,5v12a5,5,0,0,1,-5,5h-409a5,5,0,0,1,-5,-5v-12a5,5,0,0,1,5,-5z" stroke-width="3"></path><g id="node_text31" fill="black"><text id="kity_text_237" text-rendering="inherit" font-size="12" dy=".8em" y="673.6999763846399" x="1221.5000350773335">Transforming Side Effects into Therapeutic（可治疗的） Opportunities</text></g></g><g id="minder_node33"><g id="node_expander28" style="cursor: pointer;" display="none"><path id="kity_path_482" fill="white" stroke="gray" d="M1670.5000487565994,655.4999755620958A6,6,0,1,1,1658.5000487565994,655.4999755620958A6,6,0,1,1,1670.5000487565994,655.4999755620958"></path><path id="kity_path_483" fill="none" stroke="gray"></path></g><path id="node_outline29" fill="none" stroke="none" d="M1675.5000487565994,644.4999755620958h70a5,5,0,0,1,5,5v12a5,5,0,0,1,-5,5h-70a5,5,0,0,1,-5,-5v-12a5,5,0,0,1,5,-5z"></path><g id="node_text29" fill="black"><text id="kity_text_233" text-rendering="inherit" font-size="12" dy=".8em" y="647.6999756097795" x="1680.5000487565994">多组学分析</text></g></g><g id="minder_node34"><g id="node_expander29" style="cursor: pointer;" display="none"><path id="kity_path_485" fill="white" stroke="gray" d="M1670.5000487565994,707.4999771118164A6,6,0,1,1,1658.5000487565994,707.4999771118164A6,6,0,1,1,1670.5000487565994,707.4999771118164"></path><path id="kity_path_486" fill="none" stroke="gray"></path></g><path id="node_outline30" fill="none" stroke="none" d="M1675.5000487565994,696.4999771118164h115a5,5,0,0,1,5,5v12a5,5,0,0,1,-5,5h-115a5,5,0,0,1,-5,-5v-12a5,5,0,0,1,5,-5z"></path><g id="node_text30" fill="black"><text id="kity_text_235" text-rendering="inherit" font-size="12" dy=".8em" y="699.6999771595001" x="1680.5000487565994">QSAR定量构效关系</text></g></g><g id="minder_node35"><g id="node_expander34" style="cursor: pointer;"><path id="kity_path_500" fill="white" stroke="gray" d="M1211.5000350773335,811.4999802112579A6,6,0,1,1,1199.5000350773335,811.4999802112579A6,6,0,1,1,1211.5000350773335,811.4999802112579"></path><path id="kity_path_501" fill="none" stroke="gray" d="M1201.0000350773335,811.4999802112579L1210.0000350773335,811.4999802112579"></path></g><path id="node_outline35" fill="none" stroke="none" d="M1216.5000350773335,800.4999802112579h357a5,5,0,0,1,5,5v12a5,5,0,0,1,-5,5h-357a5,5,0,0,1,-5,-5v-12a5,5,0,0,1,5,-5z" stroke-width="3"></path><g id="node_text35" fill="black"><text id="kity_text_245" text-rendering="inherit" font-size="12" dy=".8em" y="803.6999802589417" x="1221.5000350773335">Exploring New Indications Based on the Original Mechanism</text></g></g><g id="minder_node36"><g id="node_expander31" style="cursor: pointer;" display="none"><path id="kity_path_491" fill="white" stroke="gray" d="M1618.5000472068787,759.4999786615372A6,6,0,1,1,1606.5000472068787,759.4999786615372A6,6,0,1,1,1618.5000472068787,759.4999786615372"></path><path id="kity_path_492" fill="none" stroke="gray"></path></g><path id="node_outline32" fill="none" stroke="none" d="M1623.5000472068787,748.4999786615372h551a5,5,0,0,1,5,5v12a5,5,0,0,1,-5,5h-551a5,5,0,0,1,-5,-5v-12a5,5,0,0,1,5,-5z"></path><g id="node_text32" fill="black"><text id="kity_text_239" text-rendering="inherit" font-size="12" dy=".8em" y="751.6999787092209" x="1628.5000472068787">通过分析药物已知的分子作用机制（如靶点、通路、细胞响应），发现其在其他疾病中的潜在治疗价值</text></g></g><g id="minder_node37"><g id="node_expander32" style="cursor: pointer;" display="none"><path id="kity_path_494" fill="white" stroke="gray" d="M1618.5000472068787,811.4999802112579A6,6,0,1,1,1606.5000472068787,811.4999802112579A6,6,0,1,1,1618.5000472068787,811.4999802112579"></path><path id="kity_path_495" fill="none" stroke="gray"></path></g><path id="node_outline33" fill="none" stroke="none" d="M1623.5000472068787,800.4999802112579h71a5,5,0,0,1,5,5v12a5,5,0,0,1,-5,5h-71a5,5,0,0,1,-5,-5v-12a5,5,0,0,1,5,-5z"></path><g id="node_text33" fill="black"><text id="kity_text_241" text-rendering="inherit" font-size="12" dy=".8em" y="803.6999802589417" x="1628.5000472068787">高通量筛选</text></g></g><g id="minder_node38"><g id="node_expander33" style="cursor: pointer;" display="none"><path id="kity_path_497" fill="white" stroke="gray" d="M1618.5000472068787,863.4999817609787A6,6,0,1,1,1606.5000472068787,863.4999817609787A6,6,0,1,1,1618.5000472068787,863.4999817609787"></path><path id="kity_path_498" fill="none" stroke="gray"></path></g><path id="node_outline34" fill="none" stroke="none" d="M1623.5000472068787,852.4999817609787h464a5,5,0,0,1,5,5v12a5,5,0,0,1,-5,5h-464a5,5,0,0,1,-5,-5v-12a5,5,0,0,1,5,-5z"></path><g id="node_text34" fill="black"><text id="kity_text_243" text-rendering="inherit" font-size="12" dy=".8em" y="855.6999818086624" x="1628.5000472068787">已知药物机制 → 转录组/蛋白组分析 → 靶点-疾病网络匹配 → 虚拟筛选 → 实验验证&#xa0;&#xa0;</text></g></g><g id="minder_node39"><g id="node_expander39" style="cursor: pointer;"><path id="kity_path_515" fill="white" stroke="gray" d="M1211.5000350773335,993.4999856352806A6,6,0,1,1,1199.5000350773335,993.4999856352806A6,6,0,1,1,1211.5000350773335,993.4999856352806"></path><path id="kity_path_516" fill="none" stroke="gray" d="M1201.0000350773335,993.4999856352806L1210.0000350773335,993.4999856352806"></path></g><path id="node_outline40" fill="none" stroke="none" d="M1216.5000350773335,982.4999856352806h410a5,5,0,0,1,5,5v12a5,5,0,0,1,-5,5h-410a5,5,0,0,1,-5,-5v-12a5,5,0,0,1,5,-5z" stroke-width="3"></path><g id="node_text40" fill="black"><text id="kity_text_255" text-rendering="inherit" font-size="12" dy=".8em" y="985.6999856829643" x="1221.5000350773335">Identifying Novel Biomolecular（生物分子） Targets for Existing Drugs</text></g></g><g id="minder_node40"><g id="node_expander35" style="cursor: pointer;" display="none"><path id="kity_path_503" fill="white" stroke="gray" d="M1671.5000487864017,915.4999833106996A6,6,0,1,1,1659.5000487864017,915.4999833106996A6,6,0,1,1,1671.5000487864017,915.4999833106996"></path><path id="kity_path_504" fill="none" stroke="gray"></path></g><path id="node_outline36" fill="none" stroke="none" d="M1676.5000487864017,904.4999833106996h119a5,5,0,0,1,5,5v12a5,5,0,0,1,-5,5h-119a5,5,0,0,1,-5,-5v-12a5,5,0,0,1,5,-5z"></path><g id="node_text36" fill="black"><text id="kity_text_247" text-rendering="inherit" font-size="12" dy=".8em" y="907.6999833583833" x="1681.5000487864017">分子结构相似性搜索</text></g></g><g id="minder_node41"><g id="node_expander36" style="cursor: pointer;" display="none"><path id="kity_path_506" fill="white" stroke="gray" d="M1671.5000487864017,967.4999848604202A6,6,0,1,1,1659.5000487864017,967.4999848604202A6,6,0,1,1,1671.5000487864017,967.4999848604202"></path><path id="kity_path_507" fill="none" stroke="gray"></path></g><path id="node_outline37" fill="none" stroke="none" d="M1676.5000487864017,956.4999848604202h155a5,5,0,0,1,5,5v12a5,5,0,0,1,-5,5h-155a5,5,0,0,1,-5,-5v-12a5,5,0,0,1,5,-5z"></path><g id="node_text37" fill="black"><text id="kity_text_249" text-rendering="inherit" font-size="12" dy=".8em" y="959.6999849081039" x="1681.5000487864017">基于图神经网络的靶点预测</text></g></g><g id="minder_node42"><g id="node_expander37" style="cursor: pointer;" display="none"><path id="kity_path_509" fill="white" stroke="gray" d="M1671.5000487864017,1019.499986410141A6,6,0,1,1,1659.5000487864017,1019.499986410141A6,6,0,1,1,1671.5000487864017,1019.499986410141"></path><path id="kity_path_510" fill="none" stroke="gray"></path></g><path id="node_outline38" fill="none" stroke="none" d="M1676.5000487864017,1008.499986410141h142a5,5,0,0,1,5,5v12a5,5,0,0,1,-5,5h-142a5,5,0,0,1,-5,-5v-12a5,5,0,0,1,5,-5z"></path><g id="node_text38" fill="black"><text id="kity_text_251" text-rendering="inherit" font-size="12" dy=".8em" y="1011.6999864578247" x="1681.5000487864017">整合药物-靶点-疾病网络</text></g></g><g id="minder_node43"><g id="node_expander38" style="cursor: pointer;" display="none"><path id="kity_path_512" fill="white" stroke="gray" d="M1671.5000487864017,1071.4999879598618A6,6,0,1,1,1659.5000487864017,1071.4999879598618A6,6,0,1,1,1671.5000487864017,1071.4999879598618"></path><path id="kity_path_513" fill="none" stroke="gray"></path></g><path id="node_outline39" fill="none" stroke="none" d="M1676.5000487864017,1060.4999879598618h234a5,5,0,0,1,5,5v12a5,5,0,0,1,-5,5h-234a5,5,0,0,1,-5,-5v-12a5,5,0,0,1,5,-5z"></path><g id="node_text39" fill="black"><text id="kity_text_253" text-rendering="inherit" font-size="12" dy=".8em" y="1063.6999880075455" x="1681.5000487864017">真实世界数据挖掘（文献、电子病历……）</text></g></g><g id="minder_node44"><g id="node_expander43" style="cursor: pointer;"><path id="kity_path_527" fill="white" stroke="gray" d="M1211.5000350773335,1175.4999910593033A6,6,0,1,1,1199.5000350773335,1175.4999910593033A6,6,0,1,1,1211.5000350773335,1175.4999910593033"></path><path id="kity_path_528" fill="none" stroke="gray" d="M1201.0000350773335,1175.4999910593033L1210.0000350773335,1175.4999910593033"></path></g><path id="node_outline44" fill="none" stroke="none" d="M1216.5000350773335,1164.4999910593033h417a5,5,0,0,1,5,5v12a5,5,0,0,1,-5,5h-417a5,5,0,0,1,-5,-5v-12a5,5,0,0,1,5,-5z" stroke-width="3"></path><g id="node_text44" fill="black"><text id="kity_text_263" text-rendering="inherit" font-size="12" dy=".8em" y="1167.699991106987" x="1221.5000350773335">Integrating AI and Real-World Evidence to Optimize Drug Repurposing</text></g></g><g id="minder_node45"><g id="node_expander40" style="cursor: pointer;" display="none"><path id="kity_path_518" fill="white" stroke="gray" d="M1678.500048995018,1123.4999895095825A6,6,0,1,1,1666.500048995018,1123.4999895095825A6,6,0,1,1,1678.500048995018,1123.4999895095825"></path><path id="kity_path_519" fill="none" stroke="gray"></path></g><path id="node_outline41" fill="none" stroke="none" d="M1683.500048995018,1112.4999895095825h106a5,5,0,0,1,5,5v12a5,5,0,0,1,-5,5h-106a5,5,0,0,1,-5,-5v-12a5,5,0,0,1,5,-5z"></path><g id="node_text41" fill="black"><text id="kity_text_257" text-rendering="inherit" font-size="12" dy=".8em" y="1115.6999895572662" x="1688.500048995018">电子病历信息挖掘</text></g></g><g id="minder_node46"><g id="node_expander41" style="cursor: pointer;" display="none"><path id="kity_path_521" fill="white" stroke="gray" d="M1678.500048995018,1175.4999910593033A6,6,0,1,1,1666.500048995018,1175.4999910593033A6,6,0,1,1,1678.500048995018,1175.4999910593033"></path><path id="kity_path_522" fill="none" stroke="gray"></path></g><path id="node_outline42" fill="none" stroke="none" d="M1683.500048995018,1164.4999910593033h153a5,5,0,0,1,5,5v12a5,5,0,0,1,-5,5h-153a5,5,0,0,1,-5,-5v-12a5,5,0,0,1,5,-5z"></path><g id="node_text42" fill="black"><text id="kity_text_259" text-rendering="inherit" font-size="12" dy=".8em" y="1167.699991106987" x="1688.500048995018">构建患者-药物-疾病异构图</text></g></g><g id="minder_node47"><g id="node_expander42" style="cursor: pointer;" display="none"><path id="kity_path_524" fill="white" stroke="gray" d="M1678.500048995018,1227.499992609024A6,6,0,1,1,1666.500048995018,1227.499992609024A6,6,0,1,1,1678.500048995018,1227.499992609024"></path><path id="kity_path_525" fill="none" stroke="gray"></path></g><path id="node_outline43" fill="none" stroke="none" d="M1683.500048995018,1216.499992609024h155a5,5,0,0,1,5,5v12a5,5,0,0,1,-5,5h-155a5,5,0,0,1,-5,-5v-12a5,5,0,0,1,5,-5z"></path><g id="node_text43" fill="black"><text id="kity_text_261" text-rendering="inherit" font-size="12" dy=".8em" y="1219.6999926567078" x="1688.500048995018">联邦学习实现跨数据库协作</text></g></g><g id="minder_node48"><g id="node_expander44" style="cursor: pointer;" display="none"><path id="kity_path_530" fill="white" stroke="gray" d="M1211.5000350773335,1279.4999941587448A6,6,0,1,1,1199.5000350773335,1279.4999941587448A6,6,0,1,1,1211.5000350773335,1279.4999941587448"></path><path id="kity_path_531" fill="none" stroke="gray"></path></g><path id="node_outline45" fill="none" stroke="none" d="M1216.5000350773335,1268.4999941587448h323a5,5,0,0,1,5,5v12a5,5,0,0,1,-5,5h-323a5,5,0,0,1,-5,-5v-12a5,5,0,0,1,5,-5z"></path><g id="node_text45" fill="black"><text id="kity_text_265" text-rendering="inherit" font-size="12" dy=".8em" y="1271.6999942064285" x="1221.5000350773335">从副作用中发现线索、现有机制验证、深化靶点、临床转化</text></g></g><g id="minder_node49"><g id="node_expander45" style="cursor: pointer;" display="none"><path id="kity_path_533" fill="white" stroke="gray" d="M1211.5000350773335,1331.4999957084656A6,6,0,1,1,1199.5000350773335,1331.4999957084656A6,6,0,1,1,1211.5000350773335,1331.4999957084656"></path><path id="kity_path_534" fill="none" stroke="gray"></path></g><path id="node_outline46" fill="none" stroke="none" d="M1216.5000350773335,1320.4999957084656h198a5,5,0,0,1,5,5v12a5,5,0,0,1,-5,5h-198a5,5,0,0,1,-5,-5v-12a5,5,0,0,1,5,-5z"></path><g id="node_text46" fill="black"><text id="kity_text_267" text-rendering="inherit" font-size="12" dy=".8em" y="1323.6999957561493" x="1221.5000350773335">多源数据整合 + AI 驱动的迭代优化</text></g></g><g id="minder_node50"><g id="node_expander60" style="cursor: pointer;"><path id="kity_path_578" fill="white" stroke="gray" d="M800.500022828579,1604.5000038444996A6,6,0,1,1,788.500022828579,1604.5000038444996A6,6,0,1,1,800.500022828579,1604.5000038444996"></path><path id="kity_path_579" fill="none" stroke="gray" d="M790.000022828579,1604.5000038444996L799.000022828579,1604.5000038444996"></path></g><path id="node_outline61" fill="none" stroke="none" d="M805.500022828579,1593.5000038444996h200a5,5,0,0,1,5,5v12a5,5,0,0,1,-5,5h-200a5,5,0,0,1,-5,-5v-12a5,5,0,0,1,5,-5z" stroke-width="3"></path><g id="node_text61" fill="black"><text id="kity_text_297" text-rendering="inherit" font-size="12" dy=".8em" y="1596.7000038921833" x="810.500022828579">Challenges and Future Directions</text></g></g><g id="minder_node51"><g id="node_expander51" style="cursor: pointer;"><path id="kity_path_551" fill="white" stroke="gray" d="M1050.5000302791595,1461.4999995827675A6,6,0,1,1,1038.5000302791595,1461.4999995827675A6,6,0,1,1,1050.5000302791595,1461.4999995827675"></path><path id="kity_path_552" fill="none" stroke="gray" d="M1040.0000302791595,1461.4999995827675L1049.0000302791595,1461.4999995827675"></path></g><path id="node_outline52" fill="none" stroke="none" d="M1055.5000302791595,1450.4999995827675h351a5,5,0,0,1,5,5v12a5,5,0,0,1,-5,5h-351a5,5,0,0,1,-5,-5v-12a5,5,0,0,1,5,-5z"></path><g id="node_text52" fill="black"><text id="kity_text_279" text-rendering="inherit" font-size="12" dy=".8em" y="1453.6999996304512" x="1060.5000302791595">The Opportunities and Challenges of Computing Resources</text></g></g><g id="minder_node52"><g id="node_expander47" style="cursor: pointer;" display="none"><path id="kity_path_539" fill="white" stroke="gray" d="M1451.5000422298908,1383.4999972581863A6,6,0,1,1,1439.5000422298908,1383.4999972581863A6,6,0,1,1,1451.5000422298908,1383.4999972581863"></path><path id="kity_path_540" fill="none" stroke="gray"></path></g><path id="node_outline48" fill="none" stroke="none" d="M1456.5000422298908,1372.4999972581863h107a5,5,0,0,1,5,5v12a5,5,0,0,1,-5,5h-107a5,5,0,0,1,-5,-5v-12a5,5,0,0,1,5,-5z"></path><g id="node_text48" fill="black"><text id="kity_text_271" text-rendering="inherit" font-size="12" dy=".8em" y="1375.69999730587" x="1461.5000422298908">数据质量参差不齐</text></g></g><g id="minder_node53"><g id="node_expander48" style="cursor: pointer;" display="none"><path id="kity_path_542" fill="white" stroke="gray" d="M1451.5000422298908,1435.499998807907A6,6,0,1,1,1439.5000422298908,1435.499998807907A6,6,0,1,1,1451.5000422298908,1435.499998807907"></path><path id="kity_path_543" fill="none" stroke="gray"></path></g><path id="node_outline49" fill="none" stroke="none" d="M1456.5000422298908,1424.499998807907h143a5,5,0,0,1,5,5v12a5,5,0,0,1,-5,5h-143a5,5,0,0,1,-5,-5v-12a5,5,0,0,1,5,-5z"></path><g id="node_text49" fill="black"><text id="kity_text_273" text-rendering="inherit" font-size="12" dy=".8em" y="1427.6999988555908" x="1461.5000422298908">不同数据库之间异构性大</text></g></g><g id="minder_node54"><g id="node_expander49" style="cursor: pointer;" display="none"><path id="kity_path_545" fill="white" stroke="gray" d="M1451.5000422298908,1487.5000003576279A6,6,0,1,1,1439.5000422298908,1487.5000003576279A6,6,0,1,1,1451.5000422298908,1487.5000003576279"></path><path id="kity_path_546" fill="none" stroke="gray"></path></g><path id="node_outline50" fill="none" stroke="none" d="M1456.5000422298908,1476.5000003576279h95a5,5,0,0,1,5,5v12a5,5,0,0,1,-5,5h-95a5,5,0,0,1,-5,-5v-12a5,5,0,0,1,5,-5z"></path><g id="node_text50" fill="black"><text id="kity_text_275" text-rendering="inherit" font-size="12" dy=".8em" y="1479.7000004053116" x="1461.5000422298908">模型泛化能力差</text></g></g><g id="minder_node55"><g id="node_expander50" style="cursor: pointer;" display="none"><path id="kity_path_548" fill="white" stroke="gray" d="M1451.5000422298908,1539.5000019073486A6,6,0,1,1,1439.5000422298908,1539.5000019073486A6,6,0,1,1,1451.5000422298908,1539.5000019073486"></path><path id="kity_path_549" fill="none" stroke="gray"></path></g><path id="node_outline51" fill="none" stroke="none" d="M1456.5000422298908,1528.5000019073486h155a5,5,0,0,1,5,5v12a5,5,0,0,1,-5,5h-155a5,5,0,0,1,-5,-5v-12a5,5,0,0,1,5,-5z"></path><g id="node_text51" fill="black"><text id="kity_text_277" text-rendering="inherit" font-size="12" dy=".8em" y="1531.7000019550323" x="1461.5000422298908">对少样本的罕见病识别性差</text></g></g><g id="minder_node56"><g id="node_expander58" style="cursor: pointer;"><path id="kity_path_572" fill="white" stroke="gray" d="M1050.5000302791595,1643.5000050067902A6,6,0,1,1,1038.5000302791595,1643.5000050067902A6,6,0,1,1,1050.5000302791595,1643.5000050067902"></path><path id="kity_path_573" fill="none" stroke="gray" d="M1040.0000302791595,1643.5000050067902L1049.0000302791595,1643.5000050067902"></path></g><path id="node_outline59" fill="none" stroke="none" d="M1055.5000302791595,1632.5000050067902h380a5,5,0,0,1,5,5v12a5,5,0,0,1,-5,5h-380a5,5,0,0,1,-5,-5v-12a5,5,0,0,1,5,-5z"></path><g id="node_text59" fill="black"><text id="kity_text_293" text-rendering="inherit" font-size="12" dy=".8em" y="1635.7000050544739" x="1060.5000302791595">Limitations of Virtual Screening Algorithm for Drug Repurposing</text></g></g><g id="minder_node57"><g id="node_expander53" style="cursor: pointer;"><path id="kity_path_557" fill="white" stroke="gray" d="M1480.5000430941582,1591.5000034570694A6,6,0,1,1,1468.5000430941582,1591.5000034570694A6,6,0,1,1,1480.5000430941582,1591.5000034570694"></path><path id="kity_path_558" fill="none" stroke="gray" d="M1470.0000430941582,1591.5000034570694L1479.0000430941582,1591.5000034570694"></path></g><path id="node_outline54" fill="none" stroke="none" d="M1485.5000430941582,1580.5000034570694h58a5,5,0,0,1,5,5v12a5,5,0,0,1,-5,5h-58a5,5,0,0,1,-5,-5v-12a5,5,0,0,1,5,-5z"></path><g id="node_text54" fill="black"><text id="kity_text_283" text-rendering="inherit" font-size="12" dy=".8em" y="1583.700003504753" x="1490.5000430941582">监督模型</text></g></g><g id="minder_node58"><g id="node_expander52" style="cursor: pointer;" display="none"><path id="kity_path_554" fill="white" stroke="gray" d="M1588.500046312809,1591.5000034570694A6,6,0,1,1,1576.500046312809,1591.5000034570694A6,6,0,1,1,1588.500046312809,1591.5000034570694"></path><path id="kity_path_555" fill="none" stroke="gray"></path></g><path id="node_outline53" fill="none" stroke="none" d="M1593.500046312809,1580.5000034570694h47a5,5,0,0,1,5,5v12a5,5,0,0,1,-5,5h-47a5,5,0,0,1,-5,-5v-12a5,5,0,0,1,5,-5z"></path><g id="node_text53" fill="black"><text id="kity_text_281" text-rendering="inherit" font-size="12" dy=".8em" y="1583.700003504753" x="1598.500046312809">过拟合</text></g></g><g id="minder_node59"><g id="node_expander55" style="cursor: pointer;"><path id="kity_path_563" fill="white" stroke="gray" d="M1480.5000430941582,1643.5000050067902A6,6,0,1,1,1468.5000430941582,1643.5000050067902A6,6,0,1,1,1480.5000430941582,1643.5000050067902"></path><path id="kity_path_564" fill="none" stroke="gray" d="M1470.0000430941582,1643.5000050067902L1479.0000430941582,1643.5000050067902"></path></g><path id="node_outline56" fill="none" stroke="none" d="M1485.5000430941582,1632.5000050067902h70a5,5,0,0,1,5,5v12a5,5,0,0,1,-5,5h-70a5,5,0,0,1,-5,-5v-12a5,5,0,0,1,5,-5z"></path><g id="node_text56" fill="black"><text id="kity_text_287" text-rendering="inherit" font-size="12" dy=".8em" y="1635.7000050544739" x="1490.5000430941582">无监督模型</text></g></g><g id="minder_node60"><g id="node_expander54" style="cursor: pointer;" display="none"><path id="kity_path_560" fill="white" stroke="gray" d="M1600.5000466704369,1643.5000050067902A6,6,0,1,1,1588.5000466704369,1643.5000050067902A6,6,0,1,1,1600.5000466704369,1643.5000050067902"></path><path id="kity_path_561" fill="none" stroke="gray"></path></g><path id="node_outline55" fill="none" stroke="none" d="M1605.5000466704369,1632.5000050067902h59a5,5,0,0,1,5,5v12a5,5,0,0,1,-5,5h-59a5,5,0,0,1,-5,-5v-12a5,5,0,0,1,5,-5z"></path><g id="node_text55" fill="black"><text id="kity_text_285" text-rendering="inherit" font-size="12" dy=".8em" y="1635.7000050544739" x="1610.5000466704369">准确性差</text></g></g><g id="minder_node61"><g id="node_expander57" style="cursor: pointer;"><path id="kity_path_569" fill="white" stroke="gray" d="M1480.5000430941582,1695.500006556511A6,6,0,1,1,1468.5000430941582,1695.500006556511A6,6,0,1,1,1480.5000430941582,1695.500006556511"></path><path id="kity_path_570" fill="none" stroke="gray" d="M1470.0000430941582,1695.500006556511L1479.0000430941582,1695.500006556511"></path></g><path id="node_outline58" fill="none" stroke="none" d="M1485.5000430941582,1684.500006556511h59a5,5,0,0,1,5,5v12a5,5,0,0,1,-5,5h-59a5,5,0,0,1,-5,-5v-12a5,5,0,0,1,5,-5z"></path><g id="node_text58" fill="black"><text id="kity_text_291" text-rendering="inherit" font-size="12" dy=".8em" y="1687.7000066041946" x="1490.5000430941582">可解释性</text></g></g><g id="minder_node62"><g id="node_expander56" style="cursor: pointer;" display="none"><path id="kity_path_566" fill="white" stroke="gray" d="M1589.5000463426113,1695.500006556511A6,6,0,1,1,1577.5000463426113,1695.500006556511A6,6,0,1,1,1589.5000463426113,1695.500006556511"></path><path id="kity_path_567" fill="none" stroke="gray"></path></g><path id="node_outline57" fill="none" stroke="none" d="M1594.5000463426113,1684.500006556511h35a5,5,0,0,1,5,5v12a5,5,0,0,1,-5,5h-35a5,5,0,0,1,-5,-5v-12a5,5,0,0,1,5,-5z"></path><g id="node_text57" fill="black"><text id="kity_text_289" text-rendering="inherit" font-size="12" dy=".8em" y="1687.7000066041946" x="1599.5000463426113">黑盒</text></g></g><g id="minder_node63"><g id="node_expander59" style="cursor: pointer;" display="none"><path id="kity_path_575" fill="white" stroke="gray" d="M1050.5000302791595,1747.5000081062317A6,6,0,1,1,1038.5000302791595,1747.5000081062317A6,6,0,1,1,1050.5000302791595,1747.5000081062317"></path><path id="kity_path_576" fill="none" stroke="gray"></path></g><path id="node_outline60" fill="none" stroke="none" d="M1055.5000302791595,1736.5000081062317h232a5,5,0,0,1,5,5v12a5,5,0,0,1,-5,5h-232a5,5,0,0,1,-5,-5v-12a5,5,0,0,1,5,-5z"></path><g id="node_text60" fill="black"><text id="kity_text_295" text-rendering="inherit" font-size="12" dy=".8em" y="1739.7000081539154" x="1060.5000302791595">The Prospect of Personalized Medicine</text></g></g><g id="minder_node64"><g id="node_expander65" style="cursor: pointer;"><path id="kity_path_593" fill="white" stroke="gray" d="M362.50000977516174,1848.5000111162663A6,6,0,1,1,350.50000977516174,1848.5000111162663A6,6,0,1,1,362.50000977516174,1848.5000111162663"></path><path id="kity_path_594" fill="none" stroke="gray" d="M352.00000977516174,1848.5000111162663L361.00000977516174,1848.5000111162663"></path></g><path id="node_outline66" fill="none" stroke="none" d="M367.50000977516174,1837.5000111162663h71a5,5,0,0,1,5,5v12a5,5,0,0,1,-5,5h-71a5,5,0,0,1,-5,-5v-12a5,5,0,0,1,5,-5z"></path><g id="node_text66" fill="black"><text id="kity_text_307" text-rendering="inherit" font-size="12" dy=".8em" y="1840.70001116395" x="372.50000977516174">AI赋能优势</text></g></g><g id="minder_node65"><g id="node_expander62" display="none" style="cursor: pointer;"><path id="kity_path_584" fill="white" stroke="gray" d="M483.50001338124275,1796.5000095665455A6,6,0,1,1,471.50001338124275,1796.5000095665455A6,6,0,1,1,483.50001338124275,1796.5000095665455"></path><path id="kity_path_585" fill="none" stroke="gray"></path></g><path id="node_outline63" fill="none" stroke="none" d="M488.50001338124275,1785.5000095665455h79a5,5,0,0,1,5,5v12a5,5,0,0,1,-5,5h-79a5,5,0,0,1,-5,-5v-12a5,5,0,0,1,5,-5z"></path><g id="node_text63" fill="black"><text id="kity_text_301" text-rendering="inherit" font-size="12" dy=".8em" y="1788.7000096142292" x="493.50001338124275">高效+低成本</text></g></g><g id="minder_node66"><g id="node_expander63" display="none" style="cursor: pointer;"><path id="kity_path_587" fill="white" stroke="gray" d="M483.50001338124275,1848.5000111162663A6,6,0,1,1,471.50001338124275,1848.5000111162663A6,6,0,1,1,483.50001338124275,1848.5000111162663"></path><path id="kity_path_588" fill="none" stroke="gray"></path></g><path id="node_outline64" fill="none" stroke="none" d="M488.50001338124275,1837.5000111162663h414a5,5,0,0,1,5,5v12a5,5,0,0,1,-5,5h-414a5,5,0,0,1,-5,-5v-12a5,5,0,0,1,5,-5z"></path><g id="node_text64" fill="black"><text id="kity_text_303" text-rendering="inherit" font-size="12" dy=".8em" y="1840.70001116395" x="493.50001338124275">数据驱动，海量数据分析（异构数据整合、分子库、基因库、电子病历……）</text></g></g><g id="minder_node67"><g id="node_expander64" style="cursor: pointer;" display="none"><path id="kity_path_590" fill="white" stroke="gray" d="M483.50001338124275,1900.500012665987A6,6,0,1,1,471.50001338124275,1900.500012665987A6,6,0,1,1,483.50001338124275,1900.500012665987"></path><path id="kity_path_591" fill="none" stroke="gray"></path></g><path id="node_outline65" fill="none" stroke="none" d="M488.50001338124275,1889.500012665987h354a5,5,0,0,1,5,5v12a5,5,0,0,1,-5,5h-354a5,5,0,0,1,-5,-5v-12a5,5,0,0,1,5,-5z" stroke-width="3"></path><g id="node_text65" fill="black"><text id="kity_text_305" text-rendering="inherit" font-size="12" dy=".8em" y="1892.7000127136707" x="493.50001338124275">精准预测（隐形特征识别、预测药物作用分子、预测新靶点……）</text></g></g><g id="minder_node68"><g id="node_expander69" style="cursor: pointer;"><path id="kity_path_605" fill="white" stroke="gray" d="M362.50000977516174,2004.5000157654285A6,6,0,1,1,350.50000977516174,2004.5000157654285A6,6,0,1,1,362.50000977516174,2004.5000157654285"></path><path id="kity_path_606" fill="none" stroke="gray" d="M352.00000977516174,2004.5000157654285L361.00000977516174,2004.5000157654285"></path></g><path id="node_outline70" fill="none" stroke="none" d="M367.50000977516174,1993.5000157654285h71a5,5,0,0,1,5,5v12a5,5,0,0,1,-5,5h-71a5,5,0,0,1,-5,-5v-12a5,5,0,0,1,5,-5z"></path><g id="node_text70" fill="black"><text id="kity_text_315" text-rendering="inherit" font-size="12" dy=".8em" y="1996.7000158131123" x="372.50000977516174">AI赋能挑战</text></g></g><g id="minder_node69"><g id="node_expander66" display="none" style="cursor: pointer;"><path id="kity_path_596" fill="white" stroke="gray" d="M483.50001338124275,1952.5000142157078A6,6,0,1,1,471.50001338124275,1952.5000142157078A6,6,0,1,1,483.50001338124275,1952.5000142157078"></path><path id="kity_path_597" fill="none" stroke="gray"></path></g><path id="node_outline67" fill="none" stroke="none" d="M488.50001338124275,1941.5000142157078h59a5,5,0,0,1,5,5v12a5,5,0,0,1,-5,5h-59a5,5,0,0,1,-5,-5v-12a5,5,0,0,1,5,-5z"></path><g id="node_text67" fill="black"><text id="kity_text_309" text-rendering="inherit" font-size="12" dy=".8em" y="1944.7000142633915" x="493.50001338124275">可解释性</text></g></g><g id="minder_node70"><g id="node_expander67" display="none" style="cursor: pointer;"><path id="kity_path_599" fill="white" stroke="gray" d="M483.50001338124275,2004.5000157654285A6,6,0,1,1,471.50001338124275,2004.5000157654285A6,6,0,1,1,483.50001338124275,2004.5000157654285"></path><path id="kity_path_600" fill="none" stroke="gray"></path></g><path id="node_outline68" fill="none" stroke="none" d="M488.50001338124275,1993.5000157654285h107a5,5,0,0,1,5,5v12a5,5,0,0,1,-5,5h-107a5,5,0,0,1,-5,-5v-12a5,5,0,0,1,5,-5z"></path><g id="node_text68" fill="black"><text id="kity_text_311" text-rendering="inherit" font-size="12" dy=".8em" y="1996.7000158131123" x="493.50001338124275">数据集依赖性过大</text></g></g><g id="minder_node71"><g id="node_expander68" display="none" style="cursor: pointer;"><path id="kity_path_602" fill="white" stroke="gray" d="M483.50001338124275,2056.5000173151493A6,6,0,1,1,471.50001338124275,2056.5000173151493A6,6,0,1,1,483.50001338124275,2056.5000173151493"></path><path id="kity_path_603" fill="none" stroke="gray"></path></g><path id="node_outline69" fill="none" stroke="none" d="M488.50001338124275,2045.5000173151493h47a5,5,0,0,1,5,5v12a5,5,0,0,1,-5,5h-47a5,5,0,0,1,-5,-5v-12a5,5,0,0,1,5,-5z"></path><g id="node_text69" fill="black"><text id="kity_text_313" text-rendering="inherit" font-size="12" dy=".8em" y="2048.700017362833" x="493.50001338124275">伦理性</text></g></g><g id="minder_node72"><g id="node_expander73" style="cursor: pointer;"><path id="kity_path_617" fill="white" stroke="gray" d="M362.50000977516174,2134.5000196397305A6,6,0,1,1,350.50000977516174,2134.5000196397305A6,6,0,1,1,362.50000977516174,2134.5000196397305"></path><path id="kity_path_618" fill="none" stroke="gray" d="M352.00000977516174,2134.5000196397305L361.00000977516174,2134.5000196397305"></path></g><path id="node_outline74" fill="none" stroke="none" d="M367.50000977516174,2123.5000196397305h64a5,5,0,0,1,5,5v12a5,5,0,0,1,-5,5h-64a5,5,0,0,1,-5,-5v-12a5,5,0,0,1,5,-5z"></path><g id="node_text74" fill="black"><text id="kity_text_323" text-rendering="inherit" font-size="12" dy=".8em" y="2126.700019687414" x="372.50000977516174">AIDR综述</text></g></g><g id="minder_node73"><g id="node_expander72" style="cursor: pointer;"><path id="kity_path_614" fill="white" stroke="gray" d="M476.5000131726265,2134.5000196397305A6,6,0,1,1,464.5000131726265,2134.5000196397305A6,6,0,1,1,476.5000131726265,2134.5000196397305"></path><path id="kity_path_615" fill="none" stroke="gray" d="M466.0000131726265,2134.5000196397305L475.0000131726265,2134.5000196397305"></path></g><path id="node_outline73" fill="none" stroke="none" d="M481.5000131726265,2123.5000196397305h119a5,5,0,0,1,5,5v12a5,5,0,0,1,-5,5h-119a5,5,0,0,1,-5,-5v-12a5,5,0,0,1,5,-5z"></path><g id="node_text73" fill="black"><text id="kity_text_321" text-rendering="inherit" font-size="12" dy=".8em" y="2126.700019687414" x="486.5000131726265">从技术层面分类描述</text></g></g><g id="minder_node74"><g id="node_expander70" display="none" style="cursor: pointer;"><path id="kity_path_608" fill="white" stroke="gray" d="M645.500018209219,2108.50001886487A6,6,0,1,1,633.500018209219,2108.50001886487A6,6,0,1,1,645.500018209219,2108.50001886487"></path><path id="kity_path_609" fill="none" stroke="gray"></path></g><path id="node_outline71" fill="none" stroke="none" d="M650.500018209219,2097.50001886487h58a5,5,0,0,1,5,5v12a5,5,0,0,1,-5,5h-58a5,5,0,0,1,-5,-5v-12a5,5,0,0,1,5,-5z"></path><g id="node_text71" fill="black"><text id="kity_text_317" text-rendering="inherit" font-size="12" dy=".8em" y="2100.700018912554" x="655.500018209219">时间发展</text></g></g><g id="minder_node75"><g id="node_expander71" style="cursor: pointer;" display="none"><path id="kity_path_611" fill="white" stroke="gray" d="M645.500018209219,2160.500020414591A6,6,0,1,1,633.500018209219,2160.500020414591A6,6,0,1,1,645.500018209219,2160.500020414591"></path><path id="kity_path_612" fill="none" stroke="gray"></path></g><path id="node_outline72" fill="none" stroke="none" d="M650.500018209219,2149.500020414591h223a5,5,0,0,1,5,5v12a5,5,0,0,1,-5,5h-223a5,5,0,0,1,-5,-5v-12a5,5,0,0,1,5,-5z" stroke-width="3"></path><g id="node_text72" fill="black"><text id="kity_text_319" text-rendering="inherit" font-size="12" dy=".8em" y="2152.7000204622746" x="655.500018209219">技术种类（机器学习、ANN、NLP……）</text></g></g></g></g></svg>